<?xml version="1.0" standalone="no"?>
<!DOCTYPE svg PUBLIC "-//W3C//DTD SVG 1.1//EN" "http://www.w3.org/Graphics/SVG/1.1/DTD/svg11.dtd" >
<svg xmlns="http://www.w3.org/2000/svg" xmlns:xlink="http://www.w3.org/1999/xlink" version="1.1">
<metadata>
Created by FontForge 20170731 at Tue Apr 20 01:39:29 2021
 By Aleksey,,,
Copyright (c) 2012 Admix Designs. All rights reserved.
</metadata>
<defs>
<font id="MavenProLight300-Light" horiz-adv-x="1097" >
  <font-face 
    font-family="Maven Pro Light 300"
    font-weight="300"
    font-stretch="normal"
    units-per-em="2048"
    panose-1="0 0 0 0 0 0 0 0 0 0"
    ascent="1638"
    descent="-410"
    x-height="993"
    cap-height="1317"
    bbox="-150 -410 2081 1792"
    underline-thickness="102"
    underline-position="-307"
    unicode-range="U+000D-2122"
  />
<missing-glyph horiz-adv-x="856" 
 />
    <glyph glyph-name=".notdef" horiz-adv-x="856" 
 />
    <glyph glyph-name=".null" horiz-adv-x="0" 
 />
    <glyph glyph-name="nonmarkingreturn" horiz-adv-x="682" 
 />
    <glyph glyph-name="NULL" horiz-adv-x="0" 
 />
    <glyph glyph-name="NULL" horiz-adv-x="0" 
 />
    <glyph glyph-name="CR" unicode="&#xd;" horiz-adv-x="636" 
 />
    <glyph glyph-name="space" unicode=" " horiz-adv-x="636" 
 />
    <glyph glyph-name="exclam" unicode="!" horiz-adv-x="632" 
d="M369 0h-113v162h113v-162zM270 338l-8 979h100l-10 -979h-82z" />
    <glyph glyph-name="quotedbl" unicode="&#x22;" horiz-adv-x="702" 
d="M250 924h-68q-14 248 -26 411h118zM449 924l-25 411h119q-17 -233 -27 -411h-67z" />
    <glyph glyph-name="numbersign" unicode="#" horiz-adv-x="1183" 
d="M809 801l47 260h86l-47 -260h162v-84h-176l-62 -350h176v-86h-190l-41 -244h-86l41 244h-322l-43 -244h-86l43 244h-174v86h189l59 350h-188v84h204l45 260h86l-45 -260h322zM412 367h321l62 350h-324z" />
    <glyph glyph-name="dollar" unicode="$" horiz-adv-x="1132" 
d="M995 334q0 -147 -101.5 -241.5t-297.5 -106.5v-215h-66v213q-223 0 -395 86v110q173 -100 395 -100v559q-161 47 -226 81q-146 76 -161 222q-2 19 -2 39q0 70 23 130t69 108t122 78t175 36v193h66v-191q177 -8 330 -78v-104q-175 82 -330 84v-514q70 -19 118 -36
t105.5 -48.5t92.5 -70t59 -98.5t24 -136zM596 618v-534q141 11 219 76t78 174q0 52 -17 93.5t-41.5 69t-67.5 51.5t-79.5 38.5t-91.5 31.5zM246 981q0 -43 16 -77.5t39.5 -57.5t64 -43.5t75.5 -32.5t89 -27v490q-139 -10 -211.5 -77t-72.5 -175z" />
    <glyph glyph-name="percent" unicode="%" horiz-adv-x="1648" 
d="M1235 80q32 0 57.5 5.5t53.5 22.5t46 46.5t30 82t12 123.5q0 88 -16.5 146.5t-48 86t-62 37t-72.5 9.5q-33 0 -59 -5t-54 -22.5t-46 -47t-30 -81.5t-12 -123t12 -123.5t30 -82t46 -46.5t54 -22.5t59 -5.5zM1235 715q34 0 64 -6t62.5 -20t58.5 -40.5t47 -64t32.5 -95
t11.5 -129.5q0 -86 -17 -150.5t-43.5 -102.5t-64.5 -61.5t-74 -31.5t-77 -8q-42 0 -78 8t-74.5 31.5t-65.5 61.5t-44 102.5t-17 150.5q0 106 25 180t68 110t87.5 50.5t98.5 14.5zM1290 1317l-839 -1317h-93l842 1317h90zM416 678q32 0 57 5t53 22t46 46.5t30 81.5t12 123
q0 88 -17 146.5t-48 86t-61.5 37t-71.5 9.5q-33 0 -59 -5t-54 -22.5t-46 -47t-30 -81.5t-12 -123t12 -123t30 -81.5t46 -46.5t54 -22t59 -5zM416 1309q41 0 77 -8t74 -31.5t64.5 -61.5t43.5 -102.5t17 -149.5q0 -86 -17 -150.5t-43.5 -102.5t-64.5 -61.5t-74 -31.5t-77 -8
q-42 0 -78 8t-74.5 31.5t-65.5 61.5t-44 102.5t-17 150.5q0 105 25 178.5t68 109.5t88 50.5t98 14.5z" />
    <glyph glyph-name="ampersand" unicode="&#x26;" horiz-adv-x="1234" 
d="M969 248l209 -248h-131l-142 164q-160 -182 -389 -182q-96 0 -173.5 33t-126.5 87.5t-75 122.5t-26 142q0 233 282 393q-63 79 -98 151t-35 152q0 121 76 195.5t199 74.5q129 0 200.5 -78.5t71.5 -195.5q0 -102 -63.5 -175t-194.5 -149l350 -407q63 108 94 213h101
q-41 -156 -129 -293zM541 1237q-83 0 -131 -52.5t-48 -123.5q0 -99 130 -254q124 66 172.5 122.5t48.5 119.5q0 83 -44.5 135.5t-127.5 52.5zM522 82q191 0 324 154l-385 452q-140 -78 -193 -157.5t-53 -174.5q0 -47 18.5 -93.5t54 -88t96.5 -67t138 -25.5z" />
    <glyph glyph-name="quotesingle" unicode="'" horiz-adv-x="477" 
d="M199 924l-25 411h117l-25 -411h-67z" />
    <glyph glyph-name="parenleft" unicode="(" horiz-adv-x="622" 
d="M391 1454h109q-32 -52 -65.5 -125t-74 -186t-66.5 -259t-26 -294q0 -146 26 -292.5t66 -258.5t75 -187t65 -122h-109q-36 65 -70 144t-71 190.5t-59.5 249t-22.5 276.5t22.5 277t59 250t71 192t70.5 145z" />
    <glyph glyph-name="parenright" unicode=")" horiz-adv-x="624" 
d="M123 1454h108q37 -67 70.5 -146t71 -191t60 -249t22.5 -276t-22.5 -277.5t-59.5 -250t-71.5 -190.5t-70.5 -144h-108q231 435 231 862t-231 862z" />
    <glyph glyph-name="asterisk" unicode="*" horiz-adv-x="784" 
d="M590 1335l39 -65l-189 -92l189 -95l-39 -67l-172 117l12 -205h-78l15 205l-174 -117l-39 67l190 95l-190 92l39 65l174 -114l-15 204h78l-12 -204z" />
    <glyph glyph-name="plus" unicode="+" horiz-adv-x="1062" 
d="M571 627h314v-86h-314v-314h-84v314h-315v86h315v313h84v-313z" />
    <glyph glyph-name="comma" unicode="," horiz-adv-x="546" 
d="M135 -209l133 377h115l-147 -377h-101z" />
    <glyph glyph-name="hyphen" unicode="-" horiz-adv-x="948" 
d="M147 532v99h646v-99h-646z" />
    <glyph glyph-name="period" unicode="." horiz-adv-x="557" 
d="M340 0h-113v162h113v-162z" />
    <glyph glyph-name="slash" unicode="/" horiz-adv-x="778" 
d="M-31 -250l752 1747h94l-754 -1747h-92z" />
    <glyph glyph-name="zero" unicode="0" horiz-adv-x="1259" 
d="M633 1333q256 0 379 -168t123 -510q0 -341 -123 -509.5t-379 -168.5t-380 168.5t-124 509.5t124 509.5t380 168.5zM633 72q72 0 128.5 15t109 55t87.5 104t55.5 167.5t20.5 241.5q0 137 -20.5 240t-55.5 167.5t-87 105t-109.5 56t-128.5 15.5q-72 0 -129 -15t-109.5 -55
t-87.5 -104.5t-55.5 -168t-20.5 -241.5t20.5 -241.5t55.5 -167.5t87.5 -104t109.5 -55t129 -15z" />
    <glyph glyph-name="one" unicode="1" horiz-adv-x="839" 
d="M195 1161l256 156h112v-1317h-100v1210l-268 -170v121z" />
    <glyph glyph-name="two" unicode="2" horiz-adv-x="1126" 
d="M317 100h662v-100h-829v86q85 63 171 135.5t183.5 170t171.5 191t123 197t49 189.5q0 49 -17 93.5t-53.5 84t-104 63t-159.5 23.5q-187 0 -352 -103v111q169 94 356 94q90 0 164 -21.5t123 -57t82.5 -83.5t48 -99t14.5 -105q0 -354 -633 -869z" />
    <glyph glyph-name="three" unicode="3" 
d="M680 707q26 -3 60 -17t73.5 -42.5t72 -66.5t54 -95.5t21.5 -123.5q0 -79 -27.5 -146t-83.5 -120.5t-150 -83.5t-217 -30q-193 0 -344 79v105q147 -82 332 -82q189 0 288 72.5t99 208.5t-100 209.5t-293 74.5h-150v96h152q163 1 246.5 64.5t83.5 181.5q0 119 -87 181.5
t-253 62.5q-156 0 -289 -68v105q133 65 299 65q113 0 198 -28t135 -77t74.5 -109.5t24.5 -131.5q0 -66 -24 -122t-59.5 -89t-71 -52t-64.5 -21z" />
    <glyph glyph-name="four" unicode="4" horiz-adv-x="1142" 
d="M844 485h190v-94h-190v-391h-101v391h-661v107q339 421 649 819h113v-832zM195 485h548v684q-100 -127 -285.5 -357t-262.5 -327z" />
    <glyph glyph-name="five" unicode="5" horiz-adv-x="1140" 
d="M244 1317h653v-100h-565q-52 -441 -53 -455q127 43 260 43q66 0 125 -10.5t118 -38.5t101.5 -72t69 -117t26.5 -168q0 -100 -30 -176.5t-76.5 -120.5t-111.5 -71.5t-124.5 -37t-126.5 -9.5q-105 0 -205 21t-166 56v105q55 -34 153.5 -60t211.5 -26q188 0 281.5 84.5
t93.5 241.5q0 299 -344 299q-57 0 -112.5 -8.5t-87 -18.5t-65 -21.5t-39.5 -13.5q-10 8 -20 18t-21.5 23t-19.5 21z" />
    <glyph glyph-name="six" unicode="6" horiz-adv-x="1144" 
d="M578 819q203 0 320.5 -108t117.5 -297q0 -64 -14.5 -124t-48 -116.5t-83 -98t-125 -66.5t-167.5 -25q-228 0 -338.5 151.5t-110.5 464.5q0 137 23.5 249.5t61.5 187t91 131t105.5 87.5t113.5 50t105.5 24.5t89.5 5.5q96 0 176 -22v-92q-106 18 -166 18q-35 0 -69 -3.5
t-82.5 -17t-90 -35t-86 -62.5t-77.5 -94.5t-57 -135.5t-31 -182q141 110 342 110zM578 78q81 0 143.5 24t98 60t57.5 84t29 88t7 80q0 149 -87.5 230t-247.5 81q-118 0 -210.5 -40.5t-138.5 -86.5q0 -520 349 -520z" />
    <glyph glyph-name="seven" unicode="7" horiz-adv-x="1126" 
d="M137 1217v100h883v-94l-524 -1223h-113l528 1217h-774z" />
    <glyph glyph-name="eight" unicode="8" horiz-adv-x="1134" 
d="M752 715q25 -2 57.5 -14t70.5 -39t69 -64t52 -94.5t21 -124.5q0 -79 -26 -148t-78 -126t-141 -90t-204 -33t-203 33t-140.5 90t-78.5 126t-26 148q0 66 21 123.5t52.5 94.5t70 64t71 39.5t57.5 14.5q-21 2 -48 13t-58 34.5t-56.5 55.5t-42 80.5t-16.5 105.5
q0 142 99.5 237.5t297.5 95.5t298 -95.5t100 -237.5q0 -71 -24.5 -128.5t-61 -90t-71 -50t-62.5 -20.5zM276 1004q0 -117 78 -183.5t219 -66.5q140 0 217.5 66t77.5 184q0 62 -23.5 108.5t-65.5 73t-93.5 39t-112.5 12.5t-112.5 -12.5t-94 -39t-66.5 -73t-24 -108.5zM573 78
q82 0 145.5 20.5t100.5 52t60.5 73.5t32 79.5t8.5 75.5q0 136 -89 209.5t-258 73.5q-167 0 -257.5 -74t-90.5 -209q0 -38 8.5 -75.5t32.5 -79.5t61 -73.5t100.5 -52t145.5 -20.5z" />
    <glyph glyph-name="nine" unicode="9" horiz-adv-x="1157" 
d="M557 498q-204 0 -321 107.5t-117 297.5q0 65 14.5 125.5t48 117t83 98t125 66.5t167.5 25q449 0 449 -620q0 -107 -14.5 -199t-39 -160t-59.5 -124.5t-73.5 -94t-84 -66.5t-86.5 -45t-86 -26t-79 -13t-68 -3q-88 0 -176 18v94q85 -18 166 -18q36 0 70 3.5t82 16.5
t89.5 34.5t85.5 62t76.5 94.5t56.5 135.5t31 181.5q-53 -44 -140.5 -76t-199.5 -32zM557 1239q-81 0 -144 -24.5t-98 -60.5t-57.5 -84t-29.5 -88t-7 -79q0 -149 88 -230t248 -81q119 0 209.5 39.5t138.5 87.5q0 520 -348 520z" />
    <glyph glyph-name="colon" unicode=":" horiz-adv-x="643" 
d="M381 66h-113v161h113v-161zM381 762h-113v164h113v-164z" />
    <glyph glyph-name="semicolon" unicode=";" horiz-adv-x="690" 
d="M401 762h-112v164h112v-164zM158 -209l133 377h115l-148 -377h-100z" />
    <glyph glyph-name="less" unicode="&#x3c;" horiz-adv-x="1228" 
d="M205 590l809 364v-112l-690 -301l690 -301v-113l-809 367v96z" />
    <glyph glyph-name="equal" unicode="=" horiz-adv-x="1183" 
d="M213 457h754v-99h-754v99zM213 805h754v-96h-754v96z" />
    <glyph glyph-name="greater" unicode="&#x3e;" horiz-adv-x="1214" 
d="M1028 590v-96l-807 -367v113l688 301l-688 301v112z" />
    <glyph glyph-name="question" unicode="?" horiz-adv-x="903" 
d="M399 1333q44 0 89 -7t101.5 -29t98.5 -57.5t71 -99.5t29 -147q0 -65 -17 -115t-43.5 -83t-59 -61.5t-65.5 -58t-59.5 -64t-43.5 -87.5t-17 -121v-65h-102v74q0 76 17 136t43.5 98.5t59 70.5t65.5 59t59.5 55.5t43.5 69.5t17 92q0 120 -81.5 180t-205.5 60
q-149 0 -262 -76v109q27 18 102 42.5t160 24.5zM375 0v162h112v-162h-112z" />
    <glyph glyph-name="at" unicode="@" horiz-adv-x="1869" 
d="M1036 1233q98 0 195 -26.5t186 -82t157.5 -134t109 -192t40.5 -245.5q0 -205 -91 -344t-234 -139q-90 0 -143 44.5t-68 108.5q-27 -68 -105 -110.5t-190 -42.5q-78 0 -141 22.5t-104.5 73t-41.5 123.5q0 118 105 197t311 79q89 0 180 -16q0 11 2 33t2 34q0 41 -8.5 70.5
t-31.5 55.5t-68.5 39.5t-114.5 13.5q-137 0 -229 -37l10 80q99 36 227 36q297 0 297 -262q0 -50 -17.5 -166.5t-17.5 -166.5q0 -71 29 -111.5t104 -40.5q120 0 202.5 116t82.5 304q0 146 -53 268t-142 200.5t-202.5 121.5t-237.5 43t-245.5 -40.5t-225 -116.5t-183 -176.5
t-124.5 -229t-45 -265.5q0 -122 37.5 -225.5t100.5 -175t147 -121t175.5 -73t186.5 -23.5q211 0 391 94l-14 -64q-83 -40 -187.5 -60.5t-199.5 -20.5q-134 0 -257 45t-220.5 128t-156 213t-58.5 287q0 124 35.5 241t97.5 212.5t147 175.5t182 134t204 84t212 30zM897 145
q221 0 266 154q10 41 29 176q-71 14 -162 14q-153 0 -247.5 -47.5t-94.5 -148.5q0 -43 19.5 -74t52.5 -46t66.5 -21.5t70.5 -6.5z" />
    <glyph glyph-name="A" unicode="A" horiz-adv-x="1282" 
d="M688 1317l535 -1317h-109q-28 70 -83.5 209t-84.5 209h-618l-166 -418h-111l537 1317h100zM637 1194l-270 -680h542z" />
    <glyph glyph-name="B" unicode="B" horiz-adv-x="1200" 
d="M829 694q23 -2 53 -12.5t68.5 -36t69.5 -61t52.5 -95t21.5 -131.5q0 -177 -119 -267.5t-338 -90.5h-477v1317h432q116 0 201.5 -27.5t133 -75.5t69.5 -105.5t22 -125.5t-20 -124.5t-51 -89.5t-61.5 -52t-56.5 -23zM260 94h385q76 0 136 14t108.5 45t75 85t26.5 129
q0 264 -350 264h-381v-537zM918 971q0 250 -316 250h-342v-496h354q141 0 222.5 58.5t81.5 187.5z" />
    <glyph glyph-name="C" unicode="C" horiz-adv-x="1212" 
d="M225 657q0 -158 37 -272t107 -180t162.5 -96.5t213.5 -30.5q192 0 383 72v-97q-189 -71 -393 -71q-139 0 -248.5 38t-191.5 117.5t-126 211t-44 308.5t44 309t125.5 212.5t191 119.5t247.5 39q205 0 395 -75v-97q-199 76 -383 76q-121 0 -214 -31.5t-163 -99
t-106.5 -181.5t-36.5 -272z" />
    <glyph glyph-name="D" unicode="D" horiz-adv-x="1296" 
d="M158 1317h401q623 0 623 -660q0 -657 -623 -657h-401v1317zM260 1223v-1129h291q271 0 399.5 137.5t128.5 425.5q0 291 -127 428.5t-401 137.5h-291z" />
    <glyph glyph-name="E" unicode="E" horiz-adv-x="1083" 
d="M975 1223h-715v-510h631v-99h-631v-518h715v-96h-815v1317h815v-94z" />
    <glyph glyph-name="F" unicode="F" horiz-adv-x="1036" 
d="M160 0v1317h792v-94h-692v-512h608v-99h-608v-612h-100z" />
    <glyph glyph-name="G" unicode="G" horiz-adv-x="1316" 
d="M707 692h471v-616q-203 -92 -443 -92q-138 0 -248 38t-192.5 117t-127 210t-44.5 308t44 309t126 212t191.5 118.5t248.5 38.5q199 0 404 -78v-98q-199 78 -392 78q-121 0 -214 -31.5t-163 -98.5t-106.5 -180.5t-36.5 -269.5q0 -127 24.5 -225.5t68.5 -165t109 -109
t143 -61t175 -18.5q167 0 330 55v461h-368v98z" />
    <glyph glyph-name="H" unicode="H" horiz-adv-x="1288" 
d="M1020 709v608h102v-1317h-102v610h-760v-610h-100v1317h100v-608h760z" />
    <glyph glyph-name="I" unicode="I" horiz-adv-x="432" 
d="M160 0v1317h100v-1317h-100z" />
    <glyph glyph-name="J" unicode="J" horiz-adv-x="847" 
d="M575 1317h103v-944q0 -89 -20 -157.5t-53 -112t-80 -71.5t-96.5 -39t-106.5 -11q-136 0 -256 65v105q113 -70 243 -70q140 0 203 70.5t63 228.5v936z" />
    <glyph glyph-name="K" unicode="K" horiz-adv-x="1142" 
d="M1057 1317l-561 -615l610 -702h-133l-543 631l-170 -185v-444h-100v1315h100v-731l662 731h135z" />
    <glyph glyph-name="L" unicode="L" horiz-adv-x="1005" 
d="M260 1317v-1219h690v-98h-790v1317h100z" />
    <glyph glyph-name="M" unicode="M" horiz-adv-x="1521" 
d="M758 604l489 713h111v-1317h-103v1149l-497 -713l-498 713v-1149h-100v1317h108z" />
    <glyph glyph-name="N" unicode="N" horiz-adv-x="1370" 
d="M1204 0h-112l-832 1165v-1165h-102v1317h114l830 -1167v1167h102v-1317z" />
    <glyph glyph-name="O" unicode="O" horiz-adv-x="1472" 
d="M731 1337q310 0 459 -169t149 -509q0 -339 -149 -508t-459 -169q-307 0 -456.5 169t-149.5 508t149.5 508.5t456.5 169.5zM731 78q263 0 384.5 142.5t121.5 438.5q0 294 -122 438t-384 144q-261 0 -383.5 -144t-122.5 -438q0 -296 122 -438.5t384 -142.5z" />
    <glyph glyph-name="P" unicode="P" horiz-adv-x="1128" 
d="M158 1317h442q216 0 331.5 -104.5t115.5 -294.5q0 -193 -118 -296.5t-331 -103.5h-340v-516h-100v1315zM588 1219h-330v-605h328q101 0 173.5 24t112 68t57 96t17.5 116q0 301 -358 301z" />
    <glyph glyph-name="Q" unicode="Q" horiz-adv-x="1466" 
d="M1339 659q0 -321 -136.5 -489.5t-416.5 -185.5q16 -96 91.5 -159t209.5 -67v-92q-346 7 -403 318q-285 13 -422 181t-137 494q0 339 149.5 508.5t456.5 169.5q310 0 459 -169t149 -509zM731 78q263 0 384.5 142.5t121.5 438.5q0 294 -122 438t-384 144
q-261 0 -383.5 -144t-122.5 -438q0 -296 122 -438.5t384 -142.5z" />
    <glyph glyph-name="R" unicode="R" horiz-adv-x="1191" 
d="M1112 0h-119l-354 547h-379v-547h-102v1317h467q211 0 323.5 -98t112.5 -281q0 -77 -23 -141t-57.5 -103.5t-79.5 -69t-83 -43t-73 -18.5zM618 1221h-358v-578h358q95 0 163 22.5t105.5 64t54.5 91t17 111.5q0 289 -340 289z" />
    <glyph glyph-name="S" unicode="S" horiz-adv-x="1112" 
d="M236 981q0 -55 25.5 -95.5t69 -66.5t100 -46t119 -37.5t124.5 -37t118.5 -49.5t100 -69.5t69 -101.5t25.5 -142q0 -160 -119.5 -257t-341.5 -97q-217 0 -401 90v108q173 -98 393 -98q163 0 264 64.5t101 189.5q0 66 -25.5 116t-69 81t-100 54t-119 40.5l-125 35
t-119 42.5t-100 59.5t-69 89.5t-25.5 127q0 71 24.5 133t74.5 113t136 80.5t199 29.5q187 0 350 -80v-104q-157 84 -340 84q-167 0 -253 -67.5t-86 -188.5z" />
    <glyph glyph-name="T" unicode="T" horiz-adv-x="1132" 
d="M35 1219v98h1059v-98h-478v-1219h-102v1219h-479z" />
    <glyph glyph-name="U" unicode="U" horiz-adv-x="1353" 
d="M150 1317h102v-803q0 -440 418 -440q420 0 420 440v803h102v-799q0 -262 -134 -398t-388 -136q-253 0 -386.5 136t-133.5 398v799z" />
    <glyph glyph-name="V" unicode="V" horiz-adv-x="1228" 
d="M561 0l-522 1317h108l465 -1172l463 1172h109l-522 -1317h-101z" />
    <glyph glyph-name="W" unicode="W" horiz-adv-x="1865" 
d="M934 1155l-369 -1155h-102l-424 1317h108l367 -1174q148 474 371 1174h100l369 -1174l366 1174h109l-424 -1317h-100q-53 166 -178.5 554t-192.5 601z" />
    <glyph glyph-name="X" unicode="X" horiz-adv-x="1169" 
d="M1106 1317l-461 -649l471 -668h-121l-413 580l-412 -580h-123l473 668l-459 649h121l400 -563l401 563h123z" />
    <glyph glyph-name="Y" unicode="Y" horiz-adv-x="1161" 
d="M580 678l419 639h121l-489 -737v-580h-103v580l-491 737h123z" />
    <glyph glyph-name="Z" unicode="Z" horiz-adv-x="1202" 
d="M131 0v86q81 115 364.5 515.5t438.5 621.5h-780v94h911v-86l-805 -1139h811v-92h-940z" />
    <glyph glyph-name="bracketleft" unicode="[" horiz-adv-x="694" 
d="M549 1321h-246v-1499h246v-96h-346v1691h346v-96z" />
    <glyph glyph-name="backslash" unicode="\" horiz-adv-x="731" 
d="M-61 1497h92l751 -1747h-92z" />
    <glyph glyph-name="bracketright" unicode="]" horiz-adv-x="712" 
d="M397 -178v1499h-241v96h344v-1691h-344v96h241z" />
    <glyph glyph-name="asciicircum" unicode="^" horiz-adv-x="1011" 
d="M485 1296l-188 -370h-84q44 83 121.5 237t109.5 215h78l234 -452h-86z" />
    <glyph glyph-name="underscore" unicode="_" horiz-adv-x="1028" 
d="M0 -49h1026v-62h-1026v62z" />
    <glyph glyph-name="grave" unicode="`" horiz-adv-x="473" 
d="M98 1448h115l160 -281h-78z" />
    <glyph glyph-name="a" unicode="a" horiz-adv-x="1067" 
d="M508 1010q218 0 321 -105t103 -311v-303q0 -65 -20.5 -116.5t-56.5 -83t-76.5 -54t-89 -33t-85.5 -14.5t-74 -4q-38 0 -76.5 4.5t-88 15.5t-91.5 33.5t-78.5 55t-57.5 84t-21 116.5q0 63 22 114.5t55.5 84.5t81 57t90 36t92.5 19t78 8.5t56 1.5q127 0 237 -20
q0 159 -79 236t-248 77q-132 0 -283 -45v99q139 47 289 47zM831 291v213q-81 18 -251 18q-44 0 -86.5 -4t-95 -18.5t-90.5 -38t-64.5 -66.5t-26.5 -100q0 -52 21 -92t53 -63t76 -37.5t83 -19.5t80 -5q53 0 100 8.5t95.5 30t77 66t28.5 108.5z" />
    <glyph glyph-name="b" unicode="b" horiz-adv-x="1112" 
d="M537 1012q57 0 108 -9t104.5 -29.5t96 -59t76.5 -92.5t52.5 -134.5t18.5 -181.5q0 -130 -30.5 -228.5t-75.5 -152.5t-108 -87.5t-116 -43.5t-112 -10q-74 0 -135.5 13.5t-101.5 34.5t-71 50.5t-47 57.5t-26 59.5t-13 53t-3 40.5v1085h102v-415q133 49 281 49zM551 78
q34 0 63.5 3.5t65.5 14.5t64.5 29.5t57 51.5t47.5 76.5t30.5 108t11.5 144.5q0 220 -90 314.5t-264 94.5q-152 0 -281 -55v-571q0 -89 71 -150t224 -61z" />
    <glyph glyph-name="c" unicode="c" horiz-adv-x="946" 
d="M221 498q0 -115 26.5 -196.5t77 -129t117 -69t154.5 -21.5q142 0 278 53v-98q-142 -53 -288 -53q-57 0 -108 9t-105.5 29.5t-98.5 59t-79 93.5t-54.5 137.5t-19.5 185.5t19.5 185.5t54.5 137.5t79 93.5t98.5 59t105.5 29.5t108 9q137 0 288 -54v-98q-141 53 -278 53
q-180 0 -277.5 -96.5t-97.5 -318.5z" />
    <glyph glyph-name="d" unicode="d" horiz-adv-x="1118" 
d="M127 506q0 120 27.5 211.5t71 146t105 88.5t121.5 46t130 12q149 0 282 -47v413h101v-1083q0 -30 -6 -62t-30.5 -79t-64.5 -82t-117 -60.5t-180 -25.5q-40 0 -78 5t-83.5 19.5t-83.5 37.5t-75 63.5t-63 93.5t-41.5 131t-15.5 172zM229 506q0 -80 11.5 -144.5t30.5 -108
t47 -76.5t56.5 -51.5t64 -29.5t65 -14.5t63.5 -3.5q153 0 225 61t72 150v571q-132 55 -282 55q-172 0 -262.5 -95.5t-90.5 -313.5z" />
    <glyph glyph-name="e" unicode="e" 
d="M567 1010q68 0 126 -16t99 -41.5t74 -62.5t54 -73.5t36 -81.5t22.5 -79t11.5 -72.5t4.5 -56t0.5 -35.5v-18t-0.5 -13t-0.5 -9v-6.5t-0.5 -4t-0.5 -2.5v-1h-764q3 -47 19 -88q22 -141 112.5 -203.5t243.5 -62.5q202 0 324 70v-105q-135 -63 -332 -63q-72 0 -135 13
t-126.5 47t-108.5 88t-73 141.5t-28 201.5q0 39 3.5 79.5t15.5 95t31 102t53.5 96t79 83t111.5 56t148 21.5zM561 913q-159 0 -241.5 -99.5t-90.5 -285.5h662q0 17 -1.5 37.5t-9 60t-19.5 75t-37 76t-58.5 69.5t-86.5 48t-118 19z" />
    <glyph glyph-name="f" unicode="f" horiz-adv-x="647" 
d="M551 1315q-23 0 -37.5 -0.5t-39 -5.5t-40.5 -13.5t-35 -25.5t-30.5 -41t-19 -61.5t-7.5 -84.5v-90h295v-90h-295v-903h-102v903h-158v90h158v90q0 67 13 120t32 86.5t48.5 57.5t53.5 35.5t57.5 18t50 7.5t40.5 1q54 0 108 -14v-90q-52 10 -92 10z" />
    <glyph glyph-name="g" unicode="g" horiz-adv-x="1069" 
d="M547 1012q101 0 177 -25t115 -59.5t62.5 -80.5t29 -76.5t5.5 -59.5v-764q0 -338 -430 -338q-143 0 -275 33v96q136 -33 263 -33q85 0 148.5 14t99.5 35.5t58 54.5t29 64t7 70v125q-137 -52 -277 -52q-66 0 -123.5 11t-118 43.5t-103 84.5t-70 141.5t-27.5 207.5
q0 92 15.5 167.5t41 127t61.5 91t73.5 62t82 37t81 19t75.5 4.5zM836 170v545q0 38 -15 72.5t-47 64.5t-90 48t-137 18q-39 0 -72.5 -5.5t-73 -20t-70.5 -44.5t-57 -73.5t-40.5 -113t-14.5 -157.5q0 -99 20.5 -172.5t52 -115t78.5 -66t90.5 -32t98.5 -7.5q141 0 277 59z" />
    <glyph glyph-name="h" unicode="h" horiz-adv-x="1124" 
d="M612 1012q182 0 278.5 -102.5t96.5 -301.5v-608h-100v608q0 156 -71.5 228.5t-215.5 72.5q-168 0 -330 -75v-834h-102v1376h102v-444q185 80 342 80z" />
    <glyph glyph-name="i" unicode="i" horiz-adv-x="450" 
d="M168 1178v151h113v-151h-113zM174 0v993h100v-993h-100z" />
    <glyph glyph-name="j" unicode="j" horiz-adv-x="462" 
d="M207 -86v1079h100v-1042q0 -72 -12 -127.5t-34.5 -92.5t-50.5 -61.5t-65 -37.5t-72.5 -18t-78.5 -5v94q109 0 161 47t52 164zM201 1329h112v-151h-112v151z" />
    <glyph glyph-name="k" unicode="k" horiz-adv-x="972" 
d="M901 993l-424 -450l479 -543h-135l-411 471l-142 -152v-319h-102v1376h102v-913l496 530h137z" />
    <glyph glyph-name="l" unicode="l" horiz-adv-x="471" 
d="M287 1376v-1376h-103v1376h103z" />
    <glyph glyph-name="m" unicode="m" horiz-adv-x="1771" 
d="M1237 1012q176 0 272.5 -92.5t96.5 -272.5v-647h-103v647q0 58 -12.5 102.5t-42 82t-84.5 57.5t-133 20q-168 0 -328 -78q35 -84 35 -184v-647h-102v647q0 58 -13 102.5t-43 82t-86 57.5t-135 20q-141 0 -289 -61v-848h-102v907q199 105 403 105q181 0 273 -103
q193 103 393 103z" />
    <glyph glyph-name="n" unicode="n" horiz-adv-x="1126" 
d="M580 1012q187 0 286 -92t99 -273v-647h-103v647q0 58 -14 103t-45.5 82t-90.5 57t-143 20q-155 0 -315 -63v-846h-100v905q202 107 426 107z" />
    <glyph glyph-name="o" unicode="o" horiz-adv-x="1144" 
d="M573 1012q69 0 130.5 -12.5t124.5 -48t108 -91t73.5 -148.5t28.5 -214q0 -122 -28.5 -215t-73.5 -148.5t-108 -90.5t-124 -47.5t-131 -12.5t-131 12.5t-124 47.5t-107.5 90.5t-73 148.5t-28.5 215q0 121 28.5 214t73 148.5t107.5 91t124.5 48t130.5 12.5zM573 78
q175 0 270 98t95 322t-95 322t-270 98q-84 0 -149 -22t-114 -70t-75 -130.5t-26 -197.5t26 -197.5t75 -130.5t114 -70t149 -22z" />
    <glyph glyph-name="p" unicode="p" horiz-adv-x="1114" 
d="M551 1012q40 0 78 -5t83 -20t83.5 -39t75.5 -64.5t63 -94t41.5 -131t15.5 -171.5q0 -120 -27.5 -211.5t-70.5 -145.5t-104.5 -88t-121.5 -46t-130 -12q-144 0 -283 49v-410h-100v1079q0 20 3 41.5t13 53t26 59.5t47 57.5t71 50.5t101.5 34.5t135.5 13.5zM537 80
q173 0 262.5 94t89.5 315q0 109 -22.5 190t-55.5 125.5t-81 71t-89 34.5t-90 8q-153 0 -225 -61t-72 -150v-572q118 -55 283 -55z" />
    <glyph glyph-name="q" unicode="q" horiz-adv-x="1116" 
d="M117 487q0 94 15.5 171.5t41.5 131t63 94t75.5 64.5t83.5 39t83 20t78 5q103 0 180.5 -25.5t117.5 -61t64 -82.5t29.5 -79t5.5 -62v-1079h-100v410q-139 -49 -281 -49q-70 0 -130 12t-122 46t-105.5 88t-71 145.5t-27.5 211.5zM219 489q0 -221 89.5 -315t264.5 -94
q163 0 281 55v572q0 89 -72 150t-225 61q-49 0 -90 -8t-89 -34.5t-81 -71t-55.5 -125.5t-22.5 -190z" />
    <glyph glyph-name="r" unicode="r" horiz-adv-x="651" 
d="M618 1010v-99q-178 -7 -366 -61v-850h-100v915q235 95 466 95z" />
    <glyph glyph-name="s" unicode="s" horiz-adv-x="868" 
d="M211 735q0 -43 24 -74t64 -48t90.5 -33.5t103 -29t103 -36t90.5 -53.5t64 -82t24 -121q0 -125 -92.5 -199.5t-267.5 -74.5q-166 0 -312 71v107q149 -78 308 -78q120 0 191 44.5t71 129.5q0 60 -31 100.5t-80.5 62.5t-109.5 38.5t-120.5 35t-110 45t-80.5 75.5t-31 120
q0 55 19 103t58 88t106 63t154 23q130 0 269 -60v-100q-124 61 -258 61q-109 0 -177.5 -43t-68.5 -135z" />
    <glyph glyph-name="t" unicode="t" horiz-adv-x="673" 
d="M483 80q71 0 121 20v-96q-70 -18 -133 -18q-260 0 -260 256v661h-160v90h160v281h102v-281h287v-90h-287v-657q0 -94 45.5 -130t124.5 -36z" />
    <glyph glyph-name="u" unicode="u" horiz-adv-x="1142" 
d="M877 406v587h102v-581q0 -206 -107.5 -316t-306.5 -110t-306 110t-107 316v581h102v-587q0 -328 311 -328q312 0 312 328z" />
    <glyph glyph-name="v" unicode="v" horiz-adv-x="1009" 
d="M504 127l344 866h108l-401 -993h-102q-74 179 -208 513.5t-194 479.5h109z" />
    <glyph glyph-name="w" unicode="w" horiz-adv-x="1531" 
d="M766 842l-264 -842h-101l-346 993h109l289 -848l264 848h96l268 -848l289 848h107l-344 -993h-103z" />
    <glyph glyph-name="x" unicode="x" horiz-adv-x="1003" 
d="M70 0l364 502l-354 491h119l297 -413l295 413h124l-358 -493q228 -314 365 -500h-121l-305 426q-161 -234 -303 -426h-123z" />
    <glyph glyph-name="y" unicode="y" horiz-adv-x="987" 
d="M504 133l317 860h109l-416 -1112q-101 -272 -303 -272q-42 0 -94 18v94q41 -18 84 -18q37 0 69 14.5t53 35t41.5 54.5t32.5 61.5t29.5 68.5t28.5 63l-387 993h110q62 -168 179.5 -476t146.5 -384z" />
    <glyph glyph-name="z" unicode="z" horiz-adv-x="935" 
d="M831 90v-90h-731v90q362 494 598 811h-581v92h706v-88l-600 -815h608z" />
    <glyph glyph-name="braceleft" unicode="{" horiz-adv-x="686" 
d="M158 541v67q133 61 133 172v318q0 152 69 235.5t207 83.5v-96q-174 -3 -174 -191v-350q0 -119 -127 -207q127 -88 127 -204v-351q0 -99 45 -142t129 -48v-94q-137 0 -206.5 85t-69.5 232v318q0 111 -133 172z" />
    <glyph glyph-name="bar" unicode="|" horiz-adv-x="714" 
d="M406 1374v-1626h-101v1626h101z" />
    <glyph glyph-name="braceright" unicode="}" horiz-adv-x="681" 
d="M547 608v-67q-133 -61 -133 -172v-318q0 -147 -70 -232t-207 -85v94q85 5 129.5 50t44.5 140v351q0 120 129 204q-129 84 -129 207v350q0 188 -174 191v96q138 0 207.5 -84t69.5 -235v-318q0 -111 133 -172z" />
    <glyph glyph-name="asciitilde" unicode="~" horiz-adv-x="1013" 
d="M844 637q4 -62 4 -82q-67 -109 -162 -109q-42 0 -90 20.5t-85.5 45.5t-85 45.5t-87.5 20.5q-97 0 -168 -103l-4 82q70 107 168 107q42 0 91 -20.5t86.5 -45.5t85.5 -45.5t89 -20.5q90 0 158 105z" />
    <glyph glyph-name="exclamdown" unicode="&#xa1;" horiz-adv-x="618" 
d="M256 995h113v-161h-113v161zM352 655l10 -977h-100l8 977h82z" />
    <glyph glyph-name="cent" unicode="&#xa2;" horiz-adv-x="952" 
d="M872 1145v-98q-136 51 -266 51v-830q130 0 266 54v-101q-130 -48 -266 -51v-170h-69v172q-66 5 -122 20.5t-112.5 52t-95.5 91t-63.5 144t-24.5 204.5q0 113 24.5 201.5t64 144t95 92.5t112.5 53t122 19v164h69v-162q136 -3 266 -51zM221 684q0 -385 316 -412v824
q-316 -27 -316 -412z" />
    <glyph glyph-name="sterling" unicode="&#xa3;" horiz-adv-x="1091" 
d="M705 1243q-94 0 -161 -23t-102 -63.5t-50 -84t-15 -93.5v-313h440v-93h-440v-456q68 -4 212 -34t228 -30q109 0 178 29v-102q-69 -29 -178 -29q-90 0 -257.5 33.5t-252.5 33.5q-122 0 -209 -41v103q79 36 178 39v454h-178v93h178v309q0 69 22.5 131t70 116.5t131.5 86.5
t196 32q153 0 299 -75v-103q-140 80 -290 80z" />
    <glyph glyph-name="yen" unicode="&#xa5;" horiz-adv-x="1167" 
d="M1006 1317h124l-446 -660h287v-86h-332v-209h332v-86h-332v-276h-102v276h-330v86h330v209h-330v86h285l-447 660h125l418 -621z" />
    <glyph glyph-name="section" unicode="&#xa7;" horiz-adv-x="1073" 
d="M598 1360q149 0 291 -55v-101q-139 60 -283 60q-53 0 -100 -8.5t-88.5 -26t-65.5 -50.5t-24 -77q0 -55 58.5 -94.5t217.5 -77.5q62 -15 105.5 -29t95 -39t83.5 -54t53.5 -75t21.5 -102q0 -77 -54 -132t-147 -75q88 -67 88 -170q0 -114 -99 -184t-288 -70q-204 0 -336 63
v103q129 -70 330 -70q121 0 204.5 50.5t83.5 121.5q0 65 -58 108t-216 83q-67 18 -109 31t-92.5 36t-79 49t-48 66t-19.5 90q0 88 57 142.5t150 72.5q-101 56 -101 166q0 105 94 176.5t275 71.5zM862 631q0 66 -53 109t-199 83q-113 28 -200 60q-85 -8 -136 -47.5
t-51 -104.5q0 -55 54 -92.5t192 -73.5q11 -3 57 -16t64 -18.5t50 -17.5t56 -24q79 13 122.5 50.5t43.5 91.5z" />
    <glyph glyph-name="dieresis" unicode="&#xa8;" horiz-adv-x="720" 
d="M260 1167h-110v160h110v-160zM563 1167h-110v160h110v-160z" />
    <glyph glyph-name="copyright" unicode="&#xa9;" horiz-adv-x="1550" 
d="M487 657q0 -346 312 -346q118 0 225 43v-57q-98 -41 -233 -41q-170 0 -266.5 97.5t-96.5 303.5q0 208 96.5 306t266.5 98q112 0 233 -43v-57q-118 43 -227 43q-310 0 -310 -347zM774 1333q182 0 338 -91t247 -247t91 -338q0 -137 -54 -261.5t-144.5 -214.5t-215.5 -143.5
t-262 -53.5t-262.5 53.5t-216.5 143.5t-145 214.5t-54 261.5q0 182 91 338t247.5 247t339.5 91zM774 33q169 0 313 83.5t228 227.5t84 313t-84 313.5t-228 229t-313 84.5t-313.5 -84.5t-229 -229t-84.5 -313.5t84.5 -313t229 -227.5t313.5 -83.5z" />
    <glyph glyph-name="ordfeminine" unicode="&#xaa;" horiz-adv-x="753" 
d="M354 1372q123 0 180.5 -57.5t57.5 -171.5v-172q0 -42 -17 -74t-41 -49t-57 -28t-58.5 -14t-51.5 -3t-53 3.5t-60.5 14.5t-58.5 29t-42.5 51t-17.5 76q0 44 19.5 77.5t47.5 51.5t65.5 29t67 14.5t58.5 3.5h41q28 0 63 -5t38 -5q0 174 -183 174q-73 0 -157 -25v56
q70 24 159 24zM535 973v119q-2 0 -37 5t-68 5q-143 0 -198 -43q-38 -31 -39 -82q0 -123 174 -123q29 0 55.5 5t53.5 17t43 37t16 60z" />
    <glyph glyph-name="guillemotleft" unicode="&#xab;" horiz-adv-x="1101" 
d="M438 915h137l-376 -393l376 -391h-137l-364 391zM840 915h135l-375 -393l375 -391h-135l-365 391z" />
    <glyph glyph-name="logicalnot" unicode="&#xac;" horiz-adv-x="1185" 
d="M178 541v94h836v-305h-94v211h-742z" />
    <glyph glyph-name="registered" unicode="&#xae;" horiz-adv-x="1550" 
d="M774 1333q182 0 338 -91t247 -247t91 -338q0 -137 -54 -261.5t-144.5 -214.5t-215.5 -143.5t-262 -53.5t-262.5 53.5t-216.5 143.5t-145 214.5t-54 261.5q0 182 91 338t247.5 247t339.5 91zM774 33q169 0 313 83.5t228 227.5t84 313t-84 313.5t-228 229t-313 84.5
t-313.5 -84.5t-229 -229t-84.5 -313.5t84.5 -313t229 -227.5t313.5 -83.5zM1079 825q0 -48 -14 -86.5t-36 -63t-50.5 -41.5t-54 -24.5t-50.5 -9.5l232 -334h-70l-223 326h-225v-326h-60v783h287q125 0 194.5 -57.5t69.5 -166.5zM588 993v-344h223q207 0 207 172t-207 172
h-223z" />
    <glyph glyph-name="macron" unicode="&#xaf;" horiz-adv-x="768" 
d="M608 1192h-450v76h450v-76z" />
    <glyph glyph-name="degree" unicode="&#xb0;" horiz-adv-x="759" 
d="M377 1364q104 0 165.5 -61.5t61.5 -167.5q0 -108 -61 -169t-166 -61q-106 0 -166.5 61t-60.5 169q0 106 60.5 167.5t166.5 61.5zM377 956q85 0 129.5 46.5t44.5 132.5t-44.5 131t-129.5 45q-86 0 -131 -45t-45 -131q0 -87 45 -133t131 -46z" />
    <glyph glyph-name="plusminus" unicode="&#xb1;" horiz-adv-x="1110" 
d="M594 969v-312h313v-86h-313v-313h-86v313h-313v86h313v312h86zM907 45h-712v84h712v-84z" />
    <glyph glyph-name="acute" unicode="&#xb4;" horiz-adv-x="493" 
d="M283 1448h114l-196 -281h-78z" />
    <glyph glyph-name="mu" unicode="&#xb5;" horiz-adv-x="1167" 
d="M174 -410v1403h102v-645q0 -59 13.5 -103.5t45 -82t90.5 -57t144 -19.5q160 0 314 64v843h102v-903q-72 -38 -186 -71t-240 -33q-115 0 -195 42t-88 89v-527h-102z" />
    <glyph glyph-name="paragraph" unicode="&#xb6;" horiz-adv-x="868" 
d="M543 1350h159v-1319h-94v524h-65q-222 0 -337.5 101t-115.5 298q0 196 115.5 296t337.5 100z" />
    <glyph glyph-name="periodcentered" unicode="&#xb7;" horiz-adv-x="536" 
d="M213 643h111v-162h-111v162z" />
    <glyph glyph-name="cedilla" unicode="&#xb8;" horiz-adv-x="555" 
d="M236 -289h-119l200 283h78z" />
    <glyph glyph-name="ordmasculine" unicode="&#xba;" horiz-adv-x="815" 
d="M408 1376q38 0 72 -7t69 -26.5t60 -50.5t41 -83.5t16 -121.5q0 -84 -23 -143t-63 -88t-81.5 -41t-90.5 -12q-51 0 -93 12t-82 41t-63 88t-23 143q0 85 23 145t63 89.5t82.5 42t92.5 12.5zM408 856q97 0 148.5 53.5t51.5 177.5q0 236 -200 236q-99 0 -152 -54.5
t-53 -181.5q0 -231 205 -231z" />
    <glyph glyph-name="guillemotright" unicode="&#xbb;" 
d="M659 129h-137q57 58 119.5 123.5t138 145.5t117.5 124q-313 328 -375 391h137l365 -391zM123 129l373 393l-373 391h135l365 -391l-365 -393h-135z" />
    <glyph glyph-name="questiondown" unicode="&#xbf;" horiz-adv-x="899" 
d="M432 655h100v-73q0 -76 -17 -136t-43.5 -98.5t-59 -70.5t-65.5 -59.5t-59.5 -56t-43.5 -69.5t-17 -92q0 -116 76 -176t207 -60q74 0 147 21.5t121 50.5v-108q-122 -68 -264 -68q-44 0 -89 7t-101.5 29t-98.5 57.5t-71 99.5t-29 147q0 65 17 115t44 83t59.5 61.5t65.5 58
t60 64t44 87.5t17 121v65zM539 993v-162h-113v162h113z" />
    <glyph glyph-name="Agrave" unicode="&#xc0;" horiz-adv-x="1282" 
d="M688 1317l535 -1317h-109q-28 70 -83.5 209t-84.5 209h-618l-166 -418h-111l537 1317h100zM637 1194l-270 -680h542zM432 1745h115l160 -283h-78z" />
    <glyph glyph-name="Aacute" unicode="&#xc1;" horiz-adv-x="1282" 
d="M688 1317l535 -1317h-109q-28 70 -83.5 209t-84.5 209h-618l-166 -418h-111l537 1317h100zM637 1194l-270 -680h542zM731 1745h115l-197 -283h-78z" />
    <glyph glyph-name="Acircumflex" unicode="&#xc2;" horiz-adv-x="1282" 
d="M688 1317l535 -1317h-109q-28 70 -83.5 209t-84.5 209h-618l-166 -418h-111l537 1317h100zM637 1194l-270 -680h542zM684 1745l209 -283h-98q-80 116 -158 221l-160 -221h-94q34 48 103.5 141.5t103.5 141.5h94z" />
    <glyph glyph-name="Atilde" unicode="&#xc3;" horiz-adv-x="1282" 
d="M688 1317l535 -1317h-109q-28 70 -83.5 209t-84.5 209h-618l-166 -418h-111l537 1317h100zM637 1194l-270 -680h542zM377 1477l-4 79q38 48 67.5 69.5t65.5 21.5q33 0 71.5 -16.5t68.5 -37t67.5 -37t68.5 -16.5q64 0 123 82q0 -12 1 -38t1 -38q-36 -51 -65 -72.5
t-64 -21.5q-41 0 -91.5 26t-99.5 52t-87 26q-71 0 -123 -79z" />
    <glyph glyph-name="Adieresis" unicode="&#xc4;" horiz-adv-x="1282" 
d="M688 1317l535 -1317h-109q-28 70 -83.5 209t-84.5 209h-618l-166 -418h-111l537 1317h100zM637 1194l-270 -680h542zM430 1462v160h111v-160h-111zM735 1462v160h111v-160h-111z" />
    <glyph glyph-name="Aring" unicode="&#xc5;" horiz-adv-x="1282" 
d="M688 1317l535 -1317h-109q-28 70 -83.5 209t-84.5 209h-618l-166 -418h-111l537 1317h100zM637 1194l-270 -680h542zM637 1737q-59 0 -85 -29t-26 -92q0 -64 26 -92.5t85 -28.5q113 0 113 121t-113 121zM637 1790q170 0 170 -174q0 -176 -170 -176q-82 0 -126 45t-44 131
t44 130t126 44z" />
    <glyph glyph-name="AE" unicode="&#xc6;" horiz-adv-x="1843" 
d="M1714 1221h-698v-510h614v-99h-614v-516h698v-96h-801v418h-530l-258 -418h-117l823 1317h883v-96zM444 518h469v699h-32z" />
    <glyph glyph-name="Ccedilla" unicode="&#xc7;" horiz-adv-x="1212" 
d="M745 1241q-121 0 -214 -31.5t-163 -99t-106.5 -181.5t-36.5 -272t37 -272t107 -180t162.5 -96.5t213.5 -30.5q192 0 383 72v-97q-165 -60 -348 -69l-155 -273h-115l192 271q-131 4 -235 44.5t-181.5 121t-119 209.5t-41.5 300q0 177 44 309t125.5 212.5t191 119.5
t247.5 39q205 0 395 -75v-97q-199 76 -383 76z" />
    <glyph glyph-name="Egrave" unicode="&#xc8;" horiz-adv-x="1083" 
d="M975 1223h-715v-510h631v-99h-631v-518h715v-96h-815v1317h815v-94zM371 1745h112l160 -281h-78z" />
    <glyph glyph-name="Eacute" unicode="&#xc9;" horiz-adv-x="1083" 
d="M975 1223h-715v-510h631v-99h-631v-518h715v-96h-815v1317h815v-94zM649 1745h115l-197 -281h-78z" />
    <glyph glyph-name="Ecircumflex" unicode="&#xca;" horiz-adv-x="1083" 
d="M975 1317v-96h-715v-510h631v-97h-631v-520h715v-94h-817v1317h817zM520 1745h92q154 -205 209 -283h-98q-80 116 -158 221q-27 -37 -79 -110.5t-80 -110.5h-95z" />
    <glyph glyph-name="Edieresis" unicode="&#xcb;" horiz-adv-x="1083" 
d="M975 1223h-715v-510h631v-99h-631v-518h715v-96h-815v1317h815v-94zM477 1464h-110v160h110v-160zM782 1464h-110v160h110v-160z" />
    <glyph glyph-name="Igrave" unicode="&#xcc;" horiz-adv-x="432" 
d="M160 1317h100v-1317h-100v1317zM10 1745h115l160 -281h-78z" />
    <glyph glyph-name="Iacute" unicode="&#xcd;" horiz-adv-x="432" 
d="M160 1317h100v-1317h-100v1317zM297 1745h115l-197 -281h-78z" />
    <glyph glyph-name="Icircumflex" unicode="&#xce;" horiz-adv-x="432" 
d="M158 1317h102v-1317h-102v1317zM256 1745l209 -283h-98q-80 116 -158 221l-160 -221h-92q36 53 106.5 148t98.5 135h94z" />
    <glyph glyph-name="Idieresis" unicode="&#xcf;" horiz-adv-x="432" 
d="M160 1317h100v-1317h-100v1317zM115 1464h-113v160h113v-160zM418 1464h-111v160h111v-160z" />
    <glyph glyph-name="Eth" unicode="&#xd0;" horiz-adv-x="1400" 
d="M98 614v84h160v619h399q623 0 623 -660q0 -657 -623 -657h-399v614h-160zM360 1223v-525h385v-84h-385v-520h291q271 0 400 137.5t129 425.5q0 291 -127.5 428.5t-401.5 137.5h-291z" />
    <glyph glyph-name="Ntilde" unicode="&#xd1;" horiz-adv-x="1370" 
d="M1204 0h-112l-832 1165v-1165h-102v1317h114l830 -1167v1167h102v-1317zM422 1477q0 13 -1 39t-1 40q66 91 133 91q33 0 71.5 -16.5t68.5 -37t67.5 -37t68.5 -16.5q65 0 121 82l4 -76q-36 -50 -66 -72t-65 -22q-41 0 -91 26t-99 52t-88 26q-65 0 -123 -79z" />
    <glyph glyph-name="Ograve" unicode="&#xd2;" horiz-adv-x="1472" 
d="M731 1337q310 0 459 -169t149 -509q0 -339 -149 -508t-459 -169q-307 0 -456.5 169t-149.5 508t149.5 508.5t456.5 169.5zM731 78q263 0 384.5 142.5t121.5 438.5q0 294 -122 438t-384 144q-261 0 -383.5 -144t-122.5 -438q0 -296 122 -438.5t384 -142.5zM524 1745h115
l160 -281h-78z" />
    <glyph glyph-name="Oacute" unicode="&#xd3;" horiz-adv-x="1472" 
d="M731 1337q310 0 459 -169t149 -509q0 -339 -149 -508t-459 -169q-307 0 -456.5 169t-149.5 508t149.5 508.5t456.5 169.5zM731 78q263 0 384.5 142.5t121.5 438.5q0 294 -122 438t-384 144q-261 0 -383.5 -144t-122.5 -438q0 -296 122 -438.5t384 -142.5zM813 1745h117
l-199 -281h-78z" />
    <glyph glyph-name="Ocircumflex" unicode="&#xd4;" horiz-adv-x="1472" 
d="M731 78q262 0 384 142t122 439q0 293 -122.5 436.5t-383.5 143.5q-262 0 -384 -143t-122 -437q0 -297 121.5 -439t384.5 -142zM731 -16q-310 0 -459 167.5t-149 507.5q0 337 149.5 506.5t458.5 169.5q606 0 606 -676q0 -340 -149 -507.5t-457 -167.5zM776 1745l209 -283
h-98q-80 116 -158 221l-160 -221h-94q34 48 103.5 141.5t103.5 141.5h94z" />
    <glyph glyph-name="Otilde" unicode="&#xd5;" horiz-adv-x="1472" 
d="M731 78q262 0 384 142t122 439q0 293 -122.5 436.5t-383.5 143.5q-262 0 -384 -143t-122 -437q0 -297 121.5 -439t384.5 -142zM731 -16q-310 0 -459 167.5t-149 507.5q0 337 149.5 506.5t458.5 169.5q606 0 606 -676q0 -340 -149 -507.5t-457 -167.5zM463 1477
q0 13 -1 39t-1 40q66 91 133 91q33 0 71.5 -16.5t68.5 -37t67.5 -37t68.5 -16.5q62 0 121 82l4 -76q-36 -50 -66 -72t-65 -22q-41 0 -91 26t-99 52t-88 26q-65 0 -123 -79z" />
    <glyph glyph-name="Odieresis" unicode="&#xd6;" horiz-adv-x="1472" 
d="M731 1337q310 0 459 -169t149 -509q0 -339 -149 -508t-459 -169q-307 0 -456.5 169t-149.5 508t149.5 508.5t456.5 169.5zM731 78q263 0 384.5 142.5t121.5 438.5q0 294 -122 438t-384 144q-261 0 -383.5 -144t-122.5 -438q0 -296 122 -438.5t384 -142.5zM524 1464v160
h111v-160h-111zM827 1464v160h111v-160h-111z" />
    <glyph glyph-name="Oslash" unicode="&#xd8;" horiz-adv-x="1472" 
d="M1317 1317l-129 -158q151 -171 151 -500q0 -339 -149 -508t-459 -169q-247 0 -397 114l-78 -96h-111l127 158q-147 166 -147 501q0 678 606 678q247 0 397 -116l80 96h109zM225 659q0 -284 115 -423l725 909q-122 96 -334 96q-261 0 -383.5 -144t-122.5 -438zM1237 659
q0 283 -115 422l-725 -909q119 -94 334 -94q263 0 384.5 142.5t121.5 438.5z" />
    <glyph glyph-name="Ugrave" unicode="&#xd9;" horiz-adv-x="1353" 
d="M150 1317h102v-803q0 -440 418 -440q420 0 420 440v803h102v-799q0 -262 -134 -398t-388 -136q-253 0 -386.5 136t-133.5 398v799zM485 1745h115q27 -51 160 -283h-78z" />
    <glyph glyph-name="Uacute" unicode="&#xda;" horiz-adv-x="1353" 
d="M150 1317h102v-803q0 -440 418 -440q420 0 420 440v803h102v-799q0 -262 -134 -398t-388 -136q-253 0 -386.5 136t-133.5 398v799zM754 1745h116q-81 -118 -198 -283h-78q133 232 160 283z" />
    <glyph glyph-name="Ucircumflex" unicode="&#xdb;" horiz-adv-x="1353" 
d="M150 1317h102v-803q0 -440 418 -440q420 0 420 440v803h102v-799q0 -262 -134 -398t-388 -136q-253 0 -386.5 136t-133.5 398v799zM625 1745h92q154 -205 209 -283h-99q-93 134 -157 221q-27 -37 -79.5 -110.5t-80.5 -110.5h-94z" />
    <glyph glyph-name="Udieresis" unicode="&#xdc;" horiz-adv-x="1353" 
d="M150 1317h102v-803q0 -440 418 -440q420 0 420 440v803h102v-799q0 -262 -134 -398t-388 -136q-253 0 -386.5 136t-133.5 398v799zM463 1462v160h110v-160h-110zM768 1462v160h111v-160h-111z" />
    <glyph glyph-name="Thorn" unicode="&#xde;" 
d="M158 1317h100v-213h293q216 0 332 -105.5t116 -296.5q0 -193 -117.5 -295t-330.5 -102h-293v-303h-100v1315zM539 1006h-281v-605h281q81 0 143 16t102 43t66 66t36.5 82t10.5 94q0 304 -358 304z" />
    <glyph glyph-name="germandbls" unicode="&#xdf;" horiz-adv-x="1163" 
d="M766 727q21 -2 48.5 -11t61 -26t65 -45.5t58 -64t42.5 -87t16 -110.5q0 -190 -143.5 -286.5t-411.5 -96.5v90q213 0 334.5 75t121.5 222q0 77 -35.5 134.5t-97.5 90.5t-136 48.5t-161 15.5v90q176 0 269.5 65.5t93.5 198.5q0 127 -78 191.5t-223 64.5q-330 0 -330 -379
v-907h-102v913q0 104 25 187.5t76 147t135 98t196 34.5q107 0 187.5 -29.5t126 -79.5t67.5 -109t22 -126q0 -66 -25 -126t-61.5 -97.5t-74 -60.5t-66.5 -25z" />
    <glyph glyph-name="agrave" unicode="&#xe0;" horiz-adv-x="1054" 
d="M508 1010q218 0 321 -105t103 -311v-303q0 -65 -20.5 -116.5t-56.5 -83t-76.5 -54t-89 -33t-85.5 -14.5t-74 -4q-38 0 -76.5 4.5t-88 15.5t-91.5 33.5t-78.5 55t-57.5 84t-21 116.5q0 63 22 114.5t55.5 84.5t81 57t90 36t92.5 19t78 8.5t56 1.5q127 0 237 -20
q0 159 -79 236t-248 77q-132 0 -283 -45v99q139 47 289 47zM831 291v213q-81 18 -251 18q-44 0 -86.5 -4t-95 -18.5t-90.5 -38t-64.5 -66.5t-26.5 -100q0 -52 21 -92t53 -63t76 -37.5t83 -19.5t80 -5q53 0 100 8.5t95.5 30t77 66t28.5 108.5zM342 1448h115l159 -283h-77z
" />
    <glyph glyph-name="aacute" unicode="&#xe1;" horiz-adv-x="1054" 
d="M508 1010q218 0 321 -105t103 -311v-303q0 -65 -20.5 -116.5t-56.5 -83t-76.5 -54t-89 -33t-85.5 -14.5t-74 -4q-38 0 -76.5 4.5t-88 15.5t-91.5 33.5t-78.5 55t-57.5 84t-21 116.5q0 63 22 114.5t55.5 84.5t81 57t90 36t92.5 19t78 8.5t56 1.5q127 0 237 -20
q0 159 -79 236t-248 77q-132 0 -283 -45v99q139 47 289 47zM831 291v213q-81 18 -251 18q-44 0 -86.5 -4t-95 -18.5t-90.5 -38t-64.5 -66.5t-26.5 -100q0 -52 21 -92t53 -63t76 -37.5t83 -19.5t80 -5q53 0 100 8.5t95.5 30t77 66t28.5 108.5zM625 1448h114l-196 -283h-78z
" />
    <glyph glyph-name="acircumflex" unicode="&#xe2;" horiz-adv-x="1054" 
d="M508 1010q218 0 321 -105t103 -311v-303q0 -65 -20.5 -116.5t-56.5 -83t-76.5 -54t-89 -33t-85.5 -14.5t-74 -4q-38 0 -76.5 4.5t-88 15.5t-91.5 33.5t-78.5 55t-57.5 84t-21 116.5q0 63 22 114.5t55.5 84.5t81 57t90 36t92.5 19t78 8.5t56 1.5q127 0 237 -20
q0 159 -79 236t-248 77q-132 0 -283 -45v99q139 47 289 47zM831 291v213q-81 18 -251 18q-44 0 -86.5 -4t-95 -18.5t-90.5 -38t-64.5 -66.5t-26.5 -100q0 -52 21 -92t53 -63t76 -37.5t83 -19.5t80 -5q53 0 100 8.5t95.5 30t77 66t28.5 108.5zM582 1448l209 -283h-99
q-25 37 -78.5 110.5t-78.5 110.5l-160 -221h-96q136 181 208 283h95z" />
    <glyph glyph-name="atilde" unicode="&#xe3;" horiz-adv-x="1054" 
d="M508 1010q218 0 321 -105t103 -311v-303q0 -65 -20.5 -116.5t-56.5 -83t-76.5 -54t-89 -33t-85.5 -14.5t-74 -4q-38 0 -76.5 4.5t-88 15.5t-91.5 33.5t-78.5 55t-57.5 84t-21 116.5q0 63 22 114.5t55.5 84.5t81 57t90 36t92.5 19t78 8.5t56 1.5q127 0 237 -20
q0 159 -79 236t-248 77q-132 0 -283 -45v99q139 47 289 47zM831 291v213q-81 18 -251 18q-44 0 -86.5 -4t-95 -18.5t-90.5 -38t-64.5 -66.5t-26.5 -100q0 -52 21 -92t53 -63t76 -37.5t83 -19.5t80 -5q53 0 100 8.5t95.5 30t77 66t28.5 108.5zM274 1167l-4 80q38 48 67.5 69
t65.5 21q41 0 91 -26.5t99 -53t87 -26.5q64 0 123 82q0 -26 4 -76q-35 -51 -65.5 -72.5t-65.5 -21.5q-41 0 -91.5 26t-100 52t-87.5 26q-27 0 -61.5 -20.5t-61.5 -59.5z" />
    <glyph glyph-name="adieresis" unicode="&#xe4;" horiz-adv-x="1054" 
d="M508 1010q218 0 321 -105t103 -311v-303q0 -65 -20.5 -116.5t-56.5 -83t-76.5 -54t-89 -33t-85.5 -14.5t-74 -4q-38 0 -76.5 4.5t-88 15.5t-91.5 33.5t-78.5 55t-57.5 84t-21 116.5q0 63 22 114.5t55.5 84.5t81 57t90 36t92.5 19t78 8.5t56 1.5q127 0 237 -20
q0 159 -79 236t-248 77q-132 0 -283 -45v99q139 47 289 47zM831 291v213q-81 18 -251 18q-44 0 -86.5 -4t-95 -18.5t-90.5 -38t-64.5 -66.5t-26.5 -100q0 -52 21 -92t53 -63t76 -37.5t83 -19.5t80 -5q53 0 100 8.5t95.5 30t77 66t28.5 108.5zM326 1165v160h110v-160h-110z
M631 1165v160h110v-160h-110z" />
    <glyph glyph-name="aring" unicode="&#xe5;" horiz-adv-x="1054" 
d="M508 1010q218 0 321 -105t103 -311v-303q0 -65 -20.5 -116.5t-56.5 -83t-76.5 -54t-89 -33t-85.5 -14.5t-74 -4q-38 0 -76.5 4.5t-88 15.5t-91.5 33.5t-78.5 55t-57.5 84t-21 116.5q0 63 22 114.5t55.5 84.5t81 57t90 36t92.5 19t78 8.5t56 1.5q127 0 237 -20
q0 159 -79 236t-248 77q-132 0 -283 -45v99q139 47 289 47zM831 291v213q-81 18 -251 18q-44 0 -86.5 -4t-95 -18.5t-90.5 -38t-64.5 -66.5t-26.5 -100q0 -52 21 -92t53 -63t76 -37.5t83 -19.5t80 -5q53 0 100 8.5t95.5 30t77 66t28.5 108.5zM528 1442q-59 0 -85.5 -29.5
t-26.5 -91.5q0 -63 26 -92t86 -29q111 0 111 121t-111 121zM528 1495q82 0 126 -44t44 -130t-44 -131t-126 -45q-170 0 -170 176q0 174 170 174z" />
    <glyph glyph-name="ae" unicode="&#xe6;" horiz-adv-x="1808" 
d="M504 1010q161 0 252 -58t129 -176q101 234 375 234q86 0 156 -24.5t114 -61t77 -88t49 -97t25.5 -97t11 -78.5t1.5 -52v-28.5t-0.5 -21t-1 -13t-0.5 -8.5v-3h-764q12 -189 110.5 -270.5t288.5 -81.5q168 0 301 68v-105q-145 -63 -338 -63q-291 0 -393 217
q-35 -66 -79.5 -111t-94 -67t-96 -30.5t-101.5 -8.5q-36 0 -74 4.5t-87 15.5t-91 33.5t-79 55t-58.5 84t-21.5 116.5q0 58 18.5 106t48 80.5t71 57t83.5 38.5t90.5 22.5t86 11.5t75.5 3q158 0 239 -18q0 160 -79.5 236.5t-249.5 76.5q-130 0 -281 -45v99q139 47 287 47z
M827 291v213q-81 18 -249 18q-37 0 -72 -3t-79 -11t-79.5 -25t-66.5 -40.5t-48.5 -61.5t-17.5 -86q0 -52 21 -92t53 -63t76 -37.5t83 -19.5t80 -5q52 0 99 8.5t95 30t76.5 66t28.5 108.5zM1253 913q-312 0 -325 -385h661q0 19 -1.5 41t-9 61.5t-20 75t-38 75t-59.5 67.5
t-88 46.5t-120 18.5z" />
    <glyph glyph-name="ccedilla" unicode="&#xe7;" horiz-adv-x="946" 
d="M596 913q-180 0 -277.5 -96.5t-97.5 -318.5q0 -115 26.5 -196.5t77 -129t117 -69t154.5 -21.5q142 0 278 53v-98q-100 -41 -239 -51l-154 -275h-116l190 273q-55 3 -103.5 13.5t-99.5 33t-91 61.5t-72.5 93t-50 134t-17.5 179q0 103 19.5 185.5t54.5 137.5t79 93.5
t98.5 59t105.5 29.5t108 9q137 0 288 -54v-98q-141 53 -278 53z" />
    <glyph glyph-name="egrave" unicode="&#xe8;" 
d="M567 1010q68 0 126 -16t99 -41.5t74 -62.5t54 -73.5t36 -81.5t22.5 -79t11.5 -72.5t4.5 -56t0.5 -35.5v-18t-0.5 -13t-0.5 -9v-6.5t-0.5 -4t-0.5 -2.5v-1h-764q3 -47 19 -88q22 -141 112.5 -203.5t243.5 -62.5q202 0 324 70v-105q-135 -63 -332 -63q-72 0 -135 13
t-126.5 47t-108.5 88t-73 141.5t-28 201.5q0 39 3.5 79.5t15.5 95t31 102t53.5 96t79 83t111.5 56t148 21.5zM561 913q-159 0 -241.5 -99.5t-90.5 -285.5h662q0 17 -1.5 37.5t-9 60t-19.5 75t-37 76t-58.5 69.5t-86.5 48t-118 19zM367 1448h114l160 -283h-78z" />
    <glyph glyph-name="eacute" unicode="&#xe9;" 
d="M567 1010q68 0 126 -16t99 -41.5t74 -62.5t54 -73.5t36 -81.5t22.5 -79t11.5 -72.5t4.5 -56t0.5 -35.5v-18t-0.5 -13t-0.5 -9v-6.5t-0.5 -4t-0.5 -2.5v-1h-764q3 -47 19 -88q22 -141 112.5 -203.5t243.5 -62.5q202 0 324 70v-105q-135 -63 -332 -63q-72 0 -135 13
t-126.5 47t-108.5 88t-73 141.5t-28 201.5q0 39 3.5 79.5t15.5 95t31 102t53.5 96t79 83t111.5 56t148 21.5zM561 913q-159 0 -241.5 -99.5t-90.5 -285.5h662q0 17 -1.5 37.5t-9 60t-19.5 75t-37 76t-58.5 69.5t-86.5 48t-118 19zM637 1448h115l-197 -283h-78q27 51 160 283
z" />
    <glyph glyph-name="ecircumflex" unicode="&#xea;" 
d="M567 1010q68 0 126 -16t99 -41.5t74 -62.5t54 -73.5t36 -81.5t22.5 -79t11.5 -72.5t4.5 -56t0.5 -35.5v-18t-0.5 -13t-0.5 -9v-6.5t-0.5 -4t-0.5 -2.5v-1h-764q3 -47 19 -88q22 -141 112.5 -203.5t243.5 -62.5q202 0 324 70v-105q-135 -63 -332 -63q-72 0 -135 13
t-126.5 47t-108.5 88t-73 141.5t-28 201.5q0 39 3.5 79.5t15.5 95t31 102t53.5 96t79 83t111.5 56t148 21.5zM561 913q-159 0 -241.5 -99.5t-90.5 -285.5h662q0 17 -1.5 37.5t-9 60t-19.5 75t-37 76t-58.5 69.5t-86.5 48t-118 19zM598 1448l209 -283h-98q-25 37 -78.5 110.5
t-79.5 110.5l-160 -221h-96q154 205 209 283h94z" />
    <glyph glyph-name="edieresis" unicode="&#xeb;" 
d="M567 1010q68 0 126 -16t99 -41.5t74 -62.5t54 -73.5t36 -81.5t22.5 -79t11.5 -72.5t4.5 -56t0.5 -35.5v-18t-0.5 -13t-0.5 -9v-6.5t-0.5 -4t-0.5 -2.5v-1h-764q3 -47 19 -88q22 -141 112.5 -203.5t243.5 -62.5q202 0 324 70v-105q-135 -63 -332 -63q-72 0 -135 13
t-126.5 47t-108.5 88t-73 141.5t-28 201.5q0 39 3.5 79.5t15.5 95t31 102t53.5 96t79 83t111.5 56t148 21.5zM561 913q-159 0 -241.5 -99.5t-90.5 -285.5h662q0 17 -1.5 37.5t-9 60t-19.5 75t-37 76t-58.5 69.5t-86.5 48t-118 19zM346 1165v160h111v-160h-111zM651 1165v160
h111v-160h-111z" />
    <glyph glyph-name="igrave" unicode="&#xec;" horiz-adv-x="450" 
d="M174 0v993h100v-993h-100zM23 1448h114q133 -232 160 -283h-78q-147 214 -196 283z" />
    <glyph glyph-name="iacute" unicode="&#xed;" horiz-adv-x="450" 
d="M174 0v993h100v-993h-100zM307 1448h117l-197 -283h-80q133 232 160 283z" />
    <glyph glyph-name="icircumflex" unicode="&#xee;" horiz-adv-x="450" 
d="M174 0v993h100v-993h-100zM272 1448l209 -283h-98q-25 37 -78.5 110.5t-79.5 110.5l-159 -221h-95q34 48 103.5 141.5t103.5 141.5h94z" />
    <glyph glyph-name="idieresis" unicode="&#xef;" horiz-adv-x="450" 
d="M174 0v993h100v-993h-100zM18 1165v160h111v-160h-111zM324 1165v160h110v-160h-110z" />
    <glyph glyph-name="eth" unicode="&#xf0;" horiz-adv-x="1153" 
d="M807 1192q199 -186 199 -590q0 -314 -110.5 -466t-338.5 -152q-92 0 -167.5 25t-125 66.5t-83 98t-48 116.5t-14.5 124q0 189 117 297t321 108q112 0 200 -32.5t140 -77.5q-18 298 -182 430l-248 -140l-39 70l209 115q-103 55 -231 55q-44 0 -87 -6v96q43 6 91 6
q193 0 329 -92q38 20 105 58.5t88 50.5q7 -12 18.5 -34t18.5 -34q-19 -11 -162 -92zM905 596q-48 48 -140 88.5t-208 40.5q-160 0 -248 -81t-88 -230q0 -40 7 -80t29.5 -88t57.5 -84t98 -60t144 -24q44 0 80 7t77.5 25t73 55t58.5 92t42.5 141.5t16.5 197.5z" />
    <glyph glyph-name="ntilde" unicode="&#xf1;" horiz-adv-x="1126" 
d="M578 1010q186 0 285.5 -92t99.5 -271v-647h-101v647q0 262 -295 262q-161 0 -313 -65v-844h-102v905q73 39 186.5 72t239.5 33zM274 1167q0 26 -4 80q38 48 67.5 69t65.5 21q41 0 91.5 -26.5t99.5 -53t86 -26.5q64 0 123 82l4 -76q-35 -51 -65.5 -72.5t-65.5 -21.5
q-41 0 -91.5 26t-100 52t-87.5 26q-26 0 -60 -20.5t-63 -59.5z" />
    <glyph glyph-name="ograve" unicode="&#xf2;" horiz-adv-x="1144" 
d="M573 1012q69 0 130.5 -12.5t124.5 -48t108 -91t73.5 -148.5t28.5 -214q0 -122 -28.5 -215t-73.5 -148.5t-108 -90.5t-124 -47.5t-131 -12.5t-131 12.5t-124 47.5t-107.5 90.5t-73 148.5t-28.5 215q0 121 28.5 214t73 148.5t107.5 91t124.5 48t130.5 12.5zM573 78
q175 0 270 98t95 322t-95 322t-270 98q-84 0 -149 -22t-114 -70t-75 -130.5t-26 -197.5t26 -197.5t75 -130.5t114 -70t149 -22zM387 1448h115l160 -281h-78z" />
    <glyph glyph-name="oacute" unicode="&#xf3;" horiz-adv-x="1144" 
d="M573 1012q69 0 130.5 -12.5t124.5 -48t108 -91t73.5 -148.5t28.5 -214q0 -122 -28.5 -215t-73.5 -148.5t-108 -90.5t-124 -47.5t-131 -12.5t-131 12.5t-124 47.5t-107.5 90.5t-73 148.5t-28.5 215q0 121 28.5 214t73 148.5t107.5 91t124.5 48t130.5 12.5zM573 78
q175 0 270 98t95 322t-95 322t-270 98q-84 0 -149 -22t-114 -70t-75 -130.5t-26 -197.5t26 -197.5t75 -130.5t114 -70t149 -22zM666 1448h114l-196 -281h-78z" />
    <glyph glyph-name="ocircumflex" unicode="&#xf4;" horiz-adv-x="1144" 
d="M573 1010q57 0 108 -9t105.5 -29.5t98.5 -59.5t79 -94t54.5 -137t19.5 -185q0 -102 -19.5 -183.5t-54.5 -136t-79 -93t-98.5 -59t-105.5 -29.5t-108 -9q-70 0 -131 12t-124.5 47t-109 89.5t-74 147.5t-28.5 214q0 122 28.5 215.5t74 149t109 90t124.5 47t131 12.5z
M573 76q174 0 268.5 98.5t94.5 321.5q0 224 -94.5 323t-268.5 99q-364 0 -364 -422q0 -420 364 -420zM618 1448l209 -283h-98q-80 116 -158 221l-159 -221h-95q34 48 103.5 141.5t103.5 141.5h94z" />
    <glyph glyph-name="otilde" unicode="&#xf5;" horiz-adv-x="1144" 
d="M573 1010q57 0 108 -9t105.5 -29.5t98.5 -59.5t79 -94t54.5 -137t19.5 -185q0 -102 -19.5 -183.5t-54.5 -136t-79 -93t-98.5 -59t-105.5 -29.5t-108 -9q-70 0 -131 12t-124.5 47t-109 89.5t-74 147.5t-28.5 214q0 122 28.5 215.5t74 149t109 90t124.5 47t131 12.5z
M573 76q174 0 268.5 98.5t94.5 321.5q0 224 -94.5 323t-268.5 99q-364 0 -364 -422q0 -420 364 -420zM305 1167q0 13 -1 40t-1 40q34 46 65 68t68 22q41 0 91 -26.5t99 -53t87 -26.5q62 0 121 82l4 -76q-35 -51 -65.5 -72.5t-65.5 -21.5q-41 0 -91 26t-99.5 52t-88.5 26
q-26 0 -60 -20.5t-63 -59.5z" />
    <glyph glyph-name="odieresis" unicode="&#xf6;" horiz-adv-x="1144" 
d="M573 1012q69 0 130.5 -12.5t124.5 -48t108 -91t73.5 -148.5t28.5 -214q0 -122 -28.5 -215t-73.5 -148.5t-108 -90.5t-124 -47.5t-131 -12.5t-131 12.5t-124 47.5t-107.5 90.5t-73 148.5t-28.5 215q0 121 28.5 214t73 148.5t107.5 91t124.5 48t130.5 12.5zM573 78
q175 0 270 98t95 322t-95 322t-270 98q-84 0 -149 -22t-114 -70t-75 -130.5t-26 -197.5t26 -197.5t75 -130.5t114 -70t149 -22zM365 1167v160h112v-160h-112zM670 1167v160h110v-160h-110z" />
    <glyph glyph-name="oslash" unicode="&#xf8;" horiz-adv-x="1157" 
d="M928 993h110l-104 -127q108 -124 108 -366q0 -122 -28.5 -216t-73 -149.5t-107.5 -90.5t-124 -47.5t-131 -12.5q-178 0 -295 84l-56 -68h-110l104 129q-108 131 -108 371q0 121 28.5 214t73.5 148t108 90t124.5 47.5t130.5 12.5q179 0 294 -86zM213 500q0 -191 76 -293
l522 645q-88 66 -233 66q-175 0 -270 -98t-95 -320zM942 500q0 181 -76 288l-522 -647q84 -63 234 -63q85 0 149.5 22t114 70t75 131t25.5 199z" />
    <glyph glyph-name="ugrave" unicode="&#xf9;" horiz-adv-x="1142" 
d="M877 406v587h102v-581q0 -206 -107.5 -316t-306.5 -110t-306 110t-107 316v581h102v-587q0 -328 311 -328q312 0 312 328zM373 1448h114l160 -283h-78z" />
    <glyph glyph-name="uacute" unicode="&#xfa;" horiz-adv-x="1142" 
d="M877 406v587h102v-581q0 -206 -107.5 -316t-306.5 -110t-306 110t-107 316v581h102v-587q0 -328 311 -328q312 0 312 328zM635 1448h115l-197 -283h-78q27 51 160 283z" />
    <glyph glyph-name="ucircumflex" unicode="&#xfb;" horiz-adv-x="1142" 
d="M877 406v587h102v-581q0 -206 -107.5 -316t-306.5 -110t-306 110t-107 316v581h102v-587q0 -328 311 -328q312 0 312 328zM518 1448h94q55 -78 209 -283h-98q-78 105 -158 221l-159 -221h-97z" />
    <glyph glyph-name="udieresis" unicode="&#xfc;" horiz-adv-x="1142" 
d="M877 406v587h102v-581q0 -206 -107.5 -316t-306.5 -110t-306 110t-107 316v581h102v-587q0 -328 311 -328q312 0 312 328zM358 1165v160h111v-160h-111zM662 1165v160h112v-160h-112z" />
    <glyph glyph-name="thorn" unicode="&#xfe;" horiz-adv-x="1091" 
d="M537 1001q70 0 130 -12t122 -46t105.5 -88t71 -145.5t27.5 -211.5t-27.5 -211.5t-71 -146t-105.5 -88.5t-122 -46t-130 -12q-148 0 -281 49v-418h-102v1743h102v-416q133 49 281 49zM537 88q173 0 263.5 94.5t90.5 315.5q0 218 -90.5 313.5t-263.5 95.5q-158 0 -281 -57
v-707q129 -55 281 -55z" />
    <glyph glyph-name="ydieresis" unicode="&#xff;" horiz-adv-x="987" 
d="M504 133l317 860h109l-416 -1112q-101 -272 -303 -272q-42 0 -94 18v94q41 -18 84 -18q37 0 69 14.5t53 35t41.5 54.5t32.5 61.5t29.5 68.5t28.5 63l-387 993h110q62 -168 179.5 -476t146.5 -384zM295 1165v160h113v-160h-113zM600 1165v160h111v-160h-111z" />
    <glyph glyph-name="uni011e" unicode="&#x11e;" horiz-adv-x="1316" 
d="M707 692h471v-616q-203 -92 -443 -92q-138 0 -248 38t-192.5 117t-127 210t-44.5 308t44 309t126 212t191.5 118.5t248.5 38.5q199 0 404 -78v-98q-199 78 -392 78q-121 0 -214 -31.5t-163 -98.5t-106.5 -180.5t-36.5 -269.5q0 -127 24.5 -225.5t68.5 -165t109 -109
t143 -61t175 -18.5q167 0 330 55v461h-368v98zM844 1686h59q0 -86 -44 -132.5t-126 -46.5q-84 0 -127 46t-43 133h58q0 -121 112 -121q59 0 85 28.5t26 92.5z" />
    <glyph glyph-name="uni011f" unicode="&#x11f;" horiz-adv-x="1069" 
d="M547 1012q101 0 177 -25t115 -59.5t62.5 -80.5t29 -76.5t5.5 -59.5v-764q0 -338 -430 -338q-143 0 -275 33v96q136 -33 263 -33q85 0 148.5 14t99.5 35.5t58 54.5t29 64t7 70v125q-137 -52 -277 -52q-66 0 -123.5 11t-118 43.5t-103 84.5t-70 141.5t-27.5 207.5
q0 92 15.5 167.5t41 127t61.5 91t73.5 62t82 37t81 19t75.5 4.5zM836 170v545q0 38 -15 72.5t-47 64.5t-90 48t-137 18q-39 0 -72.5 -5.5t-73 -20t-70.5 -44.5t-57 -73.5t-40.5 -113t-14.5 -157.5q0 -99 20.5 -172.5t52 -115t78.5 -66t90.5 -32t98.5 -7.5q141 0 277 59z
M657 1343h60q0 -86 -44 -132t-126 -46q-84 0 -127 45.5t-43 132.5h57q0 -120 113 -120q59 0 84.5 28t25.5 92z" />
    <glyph glyph-name="Idotaccent" unicode="&#x130;" horiz-adv-x="432" 
d="M160 0v1317h100v-1317h-100zM160 1489v160h100v-160h-100z" />
    <glyph glyph-name="uni0131" unicode="&#x131;" horiz-adv-x="450" 
d="M174 0v993h100v-993h-100z" />
    <glyph glyph-name="Scedilla" unicode="&#x15e;" horiz-adv-x="1112" 
d="M410 -289h-119l192 273q-206 8 -358 88v108q173 -98 393 -98q163 0 264 64.5t101 189.5q0 66 -25.5 116t-69 81t-100 54t-119 40.5l-125 35t-119 42.5t-100 59.5t-69 89.5t-25.5 127q0 71 24.5 133t74.5 113t136 80.5t199 29.5q187 0 350 -80v-104q-157 84 -340 84
q-167 0 -253 -67.5t-86 -188.5q0 -55 25.5 -95.5t69 -66.5t100 -46t119 -37.5t124.5 -37t118.5 -49.5t100 -69.5t69 -101.5t25.5 -142q0 -154 -109.5 -249.5t-314.5 -102.5z" />
    <glyph glyph-name="scedilla" unicode="&#x15f;" horiz-adv-x="868" 
d="M297 -289h-119l193 275q-143 8 -269 69v107q149 -78 308 -78q120 0 191 44.5t71 129.5q0 60 -31 100.5t-80.5 62.5t-109.5 38.5t-120.5 35t-110 45t-80.5 75.5t-31 120q0 55 19 103t58 88t106 63t154 23q130 0 269 -60v-100q-124 61 -258 61q-109 0 -177.5 -43
t-68.5 -135q0 -43 24 -74t64 -48t90.5 -33.5t103 -29t103 -36t90.5 -53.5t64 -82t24 -121q0 -118 -83.5 -191.5t-239.5 -80.5z" />
    <glyph glyph-name="Scaron" unicode="&#x160;" horiz-adv-x="1112" 
d="M236 981q0 -55 25.5 -95.5t69 -66.5t100 -46t119 -37.5t124.5 -37t118.5 -49.5t100 -69.5t69 -101.5t25.5 -142q0 -160 -119.5 -257t-341.5 -97q-217 0 -401 90v108q173 -98 393 -98q163 0 264 64.5t101 189.5q0 66 -25.5 116t-69 81t-100 54t-119 40.5l-125 35
t-119 42.5t-100 59.5t-69 89.5t-25.5 127q0 71 24.5 133t74.5 113t136 80.5t199 29.5q187 0 350 -80v-104q-157 84 -340 84q-167 0 -253 -67.5t-86 -188.5zM713 1792h98q-154 -205 -209 -283h-94l-209 283h96l160 -221q26 37 79 110.5t79 110.5z" />
    <glyph glyph-name="scaron" unicode="&#x161;" horiz-adv-x="868" 
d="M211 735q0 -43 24 -74t64 -48t90.5 -33.5t103 -29t103 -36t90.5 -53.5t64 -82t24 -121q0 -125 -92.5 -199.5t-267.5 -74.5q-166 0 -312 71v107q149 -78 308 -78q120 0 191 44.5t71 129.5q0 60 -31 100.5t-80.5 62.5t-109.5 38.5t-120.5 35t-110 45t-80.5 75.5t-31 120
q0 55 19 103t58 88t106 63t154 23q130 0 269 -60v-100q-124 61 -258 61q-109 0 -177.5 -43t-68.5 -135zM592 1448h98q-154 -205 -209 -283h-94l-209 283h96l160 -221q26 37 79 110.5t79 110.5z" />
    <glyph glyph-name="uni018f" unicode="&#x18f;" horiz-adv-x="1472" 
d="M731 1241q-199 0 -403 -80v99q203 77 403 77q310 0 459 -169t149 -509q0 -339 -149 -508t-459 -169q-307 0 -456.5 169t-149.5 508v50h1110q-11 269 -132.5 400.5t-371.5 131.5zM731 78q251 0 372 130.5t132 401.5h-1010q11 -273 131.5 -402.5t374.5 -129.5z" />
    <glyph glyph-name="uni0259" unicode="&#x259;" horiz-adv-x="1144" 
d="M573 918q-133 0 -288 -58v98q151 54 288 54q69 0 130.5 -12.5t124.5 -48t108 -91t73.5 -148.5t28.5 -214q0 -122 -28.5 -215t-73.5 -148.5t-108 -90.5t-124 -47.5t-131 -12.5t-131 12.5t-124 47.5t-107.5 90.5t-73 148.5t-28.5 215v45h827q-13 375 -363 375zM573 78
q350 0 363 375h-725q11 -200 103.5 -287.5t258.5 -87.5z" />
    <glyph glyph-name="circumflex" unicode="&#x2c6;" horiz-adv-x="774" 
d="M344 1448h94q55 -78 209 -283h-98q-26 37 -79 110.5t-79 110.5l-160 -221h-96z" />
    <glyph glyph-name="caron" unicode="&#x2c7;" horiz-adv-x="788" 
d="M549 1448h98q-154 -205 -209 -283h-94l-209 283h96l160 -221q26 37 79 110.5t79 110.5z" />
    <glyph glyph-name="dotaccent" unicode="&#x2d9;" horiz-adv-x="538" 
d="M322 1167h-111v160h111v-160z" />
    <glyph glyph-name="ring" unicode="&#x2da;" horiz-adv-x="739" 
d="M358 1497q82 0 126 -45t44 -129q0 -86 -44 -132t-126 -46q-84 0 -127 45.5t-43 132.5q0 174 170 174zM358 1202q59 0 85 28.5t26 92.5q0 62 -26 90.5t-85 28.5q-112 0 -112 -119q0 -121 112 -121z" />
    <glyph glyph-name="tilde" unicode="&#x2dc;" horiz-adv-x="911" 
d="M182 1167q0 13 -1 40t-1 40q34 47 64 68.5t67 21.5q41 0 91.5 -26.5t100 -53t87.5 -26.5q66 0 121 82l4 -76q-35 -51 -65.5 -72.5t-65.5 -21.5q-41 0 -91.5 26t-100 52t-87.5 26q-64 0 -123 -80z" />
    <glyph glyph-name="endash" unicode="&#x2013;" horiz-adv-x="1210" 
d="M133 524v88h934v-88h-934z" />
    <glyph glyph-name="emdash" unicode="&#x2014;" horiz-adv-x="1853" 
d="M147 524v94h1549v-94h-1549z" />
    <glyph glyph-name="quoteleft" unicode="&#x2018;" horiz-adv-x="466" 
d="M98 1337h115l133 -379h-100z" />
    <glyph glyph-name="quoteright" unicode="&#x2019;" horiz-adv-x="464" 
d="M98 958l133 379h115l-145 -379h-103z" />
    <glyph glyph-name="quotesinglbase" unicode="&#x201a;" horiz-adv-x="522" 
d="M133 -209l133 377h113l-146 -377h-100z" />
    <glyph glyph-name="quotedblleft" unicode="&#x201c;" horiz-adv-x="731" 
d="M614 958h-100l-147 377h114zM346 958h-102q-104 266 -146 377h115z" />
    <glyph glyph-name="quotedblright" unicode="&#x201d;" horiz-adv-x="722" 
d="M98 958l133 379h115l-145 -379h-103zM369 958l133 379h114l-147 -379h-100z" />
    <glyph glyph-name="quotedblbase" unicode="&#x201e;" horiz-adv-x="788" 
d="M133 -209l133 377h113l-146 -377h-100zM401 -209l134 377h114l-145 -377h-103z" />
    <glyph glyph-name="dagger" unicode="&#x2020;" horiz-adv-x="874" 
d="M471 1071h254v-67h-254v-801h-68v801h-253v67h253v285h68v-285z" />
    <glyph glyph-name="daggerdbl" unicode="&#x2021;" horiz-adv-x="919" 
d="M799 903h-299v-446h299v-84h-299v-301h-86v301h-301v84h301v446h-301v84h301v299h86v-299h299v-84z" />
    <glyph glyph-name="bullet" unicode="&#x2022;" horiz-adv-x="778" 
d="M594 682q0 -85 -58 -143t-143 -58t-142.5 58t-57.5 143q0 86 57.5 143.5t142.5 57.5t143 -57.5t58 -143.5z" />
    <glyph glyph-name="ellipsis" unicode="&#x2026;" horiz-adv-x="1378" 
d="M313 0h-112v162h112v-162zM1184 0h-111v162h111v-162zM748 0h-111v162h111v-162z" />
    <glyph glyph-name="perthousand" unicode="&#x2030;" horiz-adv-x="2207" 
d="M1155 80q32 0 57.5 5.5t53.5 22.5t46 46.5t30 82t12 123.5q0 88 -16.5 146.5t-48 86t-62 37t-72.5 9.5q-41 0 -72 -9.5t-62 -37t-48 -86t-17 -146.5t17 -147t48 -86t62 -37t72 -10zM1155 6q-41 0 -77 8t-74 31.5t-64.5 61.5t-43.5 102.5t-17 150.5q0 72 11.5 129.5
t32.5 95t47 64t58.5 40.5t62.5 20t64 6q41 0 77 -8t74 -31.5t65 -61.5t44 -103t17 -151t-17 -150.5t-44 -102.5t-65 -61.5t-74 -31.5t-77 -8zM1161 1317h90l-839 -1317h-93zM416 678q32 0 57 5t53 22t46 46.5t30 81.5t12 123q0 88 -17 146.5t-48 86t-61.5 37t-71.5 9.5
q-33 0 -59 -5t-54 -22.5t-46 -47t-30 -81.5t-12 -123t12 -123t30 -81.5t46 -46.5t54 -22t59 -5zM416 602q-42 0 -78 8t-74.5 31.5t-65.5 61.5t-44 102.5t-17 150.5q0 105 25 178.5t68 109.5t88 50.5t98 14.5q41 0 77 -8t74 -31.5t64.5 -61.5t43.5 -102.5t17 -149.5
q0 -86 -17 -150.5t-43.5 -102.5t-64.5 -61.5t-74 -31.5t-77 -8zM1804 80q32 0 57.5 5.5t53.5 22.5t46 46.5t30 82t12 123.5q0 88 -16.5 146.5t-48 86t-62 37t-72.5 9.5t-72.5 -9.5t-61.5 -37t-47.5 -86t-16.5 -146.5q0 -71 12 -123.5t30 -82t45.5 -46.5t53 -22.5t57.5 -5.5z
M1804 6q-41 0 -77 8t-74 31.5t-64.5 61.5t-43.5 102.5t-17 150.5q0 72 11.5 129.5t32.5 95t47 64t58.5 40.5t62.5 20t64 6q41 0 77 -8t74 -31.5t65 -61.5t44 -103t17 -151t-17 -150.5t-44 -102.5t-65 -61.5t-74 -31.5t-77 -8z" />
    <glyph glyph-name="guilsinglleft" unicode="&#x2039;" horiz-adv-x="684" 
d="M438 915h137l-376 -393l376 -391h-137l-364 391z" />
    <glyph glyph-name="guilsinglright" unicode="&#x203a;" horiz-adv-x="704" 
d="M492 522l-375 393h135l364 -393l-364 -391h-135z" />
    <glyph glyph-name="fraction" unicode="&#x2044;" horiz-adv-x="659" 
d="M-150 -43l877 1399h68l-877 -1399h-68z" />
    <glyph glyph-name="Euro" unicode="&#x20ac;" horiz-adv-x="1318" 
d="M838 1241q-427 0 -502 -383h647v-86h-659q-7 -61 -7 -115q0 -23 3.5 -66t3.5 -44h659v-86h-647q72 -383 504 -383q190 0 381 72v-97q-189 -71 -394 -71q-240 0 -397 116.5t-197 362.5h-151v86h141q-6 53 -6 110q0 63 6 115h-141v86h151q43 243 199 361t395 118
q197 0 394 -75v-97q-199 76 -383 76z" />
    <glyph glyph-name="trademark" unicode="&#x2122;" horiz-adv-x="1480" 
d="M1030 881l-250 350v-574h-51v660h55l246 -350q52 76 244 350h57v-660h-53v574zM385 657h-51v609h-248v51h545v-51h-246v-609z" />
    </font>
</defs>
</svg>
